<svg width="1280" height="720" xmlns="http://www.w3.org/2000/svg" xmlns:xlink="http://www.w3.org/1999/xlink" overflow="hidden"><defs><clipPath id="clip0"><rect x="0" y="0" width="1280" height="720"/></clipPath><clipPath id="clip1"><rect x="720" y="-17" width="552" height="180"/></clipPath><clipPath id="clip2"><rect x="354" y="-17" width="367" height="180"/></clipPath><clipPath id="clip3"><rect x="8" y="-17" width="347" height="180"/></clipPath><clipPath id="clip4"><rect x="354" y="129" width="367" height="270"/></clipPath><clipPath id="clip5"><rect x="720" y="511" width="552" height="270"/></clipPath></defs><g clip-path="url(#clip0)"><rect x="0" y="0" width="1280" height="720" fill="#FFFFFF"/><text fill="#111B46" font-family="Calibri,Calibri_MSFontService,sans-serif" font-weight="400" font-size="27" transform="translate(256.602 45)">What techniques can we use to tackle problems without changing CMS?</text><rect x="0" y="20" width="11" height="32" fill="#4472C4"/><text fill="#A6A6A6" font-family="Calibri,Calibri_MSFontService,sans-serif" font-weight="400" font-size="14" transform="translate(25.2779 42)">Technical Approaches</text><rect x="0.500053" y="676.5" width="1282" height="44" stroke="#005EAA" stroke-width="1.33333" stroke-miterlimit="8" fill="#005EAA"/><text fill="#FFFFFF" font-family="Calibri,Calibri_MSFontService,sans-serif" font-weight="700" font-size="21" transform="translate(723.319 702)">F</text><text fill="#5B9BD5" font-family="Calibri,Calibri_MSFontService,sans-serif" font-weight="700" font-size="21" transform="translate(732.565 702)">ast,</text><text fill="#FFFFFF" font-family="Calibri,Calibri_MSFontService,sans-serif" font-weight="700" font-size="21" transform="translate(768.992 702)">U</text><text fill="#5B9BD5" font-family="Calibri,Calibri_MSFontService,sans-serif" font-weight="700" font-size="21" transform="translate(782.992 702)">ser</text><text fill="#5B9BD5" font-family="Calibri,Calibri_MSFontService,sans-serif" font-weight="700" font-size="21" transform="translate(809.825 702)">-</text><text fill="#5B9BD5" font-family="Calibri,Calibri_MSFontService,sans-serif" font-weight="700" font-size="21" transform="translate(816.325 702)">friendly</text><text fill="#FFFFFF" font-family="Calibri,Calibri_MSFontService,sans-serif" font-weight="700" font-size="21" transform="translate(889.825 702)">T</text><text fill="#5B9BD5" font-family="Calibri,Calibri_MSFontService,sans-serif" font-weight="700" font-size="21" transform="translate(898.479 702)">ools</text><text fill="#5B9BD5" font-family="Calibri,Calibri_MSFontService,sans-serif" font-style="italic" font-weight="700" font-size="21" transform="translate(939.979 702)">for a</text><text fill="#FFFFFF" font-family="Calibri,Calibri_MSFontService,sans-serif" font-weight="700" font-size="21" transform="translate(986.492 702)">U</text><text fill="#5B9BD5" font-family="Calibri,Calibri_MSFontService,sans-serif" font-weight="700" font-size="21" transform="translate(1000.49 702)">niversal,</text><text fill="#FFFFFF" font-family="Calibri,Calibri_MSFontService,sans-serif" font-weight="700" font-size="21" transform="translate(1079.7 702)">R</text><text fill="#5B9BD5" font-family="Calibri,Calibri_MSFontService,sans-serif" font-weight="700" font-size="21" transform="translate(1091.39 702)">eliable</text><text fill="#FFFFFF" font-family="Calibri,Calibri_MSFontService,sans-serif" font-weight="700" font-size="21" transform="translate(1155.05 702)">E</text><text fill="#5B9BD5" font-family="Calibri,Calibri_MSFontService,sans-serif" font-weight="700" font-size="21" transform="translate(1165.39 702)">xperience</text><path d="M8.60262 55.7806 354.235 55.7806 354.235 90.9806 8.60262 90.9806Z" fill="#4472C4" fill-rule="evenodd"/><path d="M354.235 55.7806 720.468 55.7806 720.468 90.9806 354.235 90.9806Z" fill="#4472C4" fill-rule="evenodd"/><path d="M720.468 55.7806 1271.4 55.7806 1271.4 90.9806 720.468 90.9806Z" fill="#4472C4" fill-rule="evenodd"/><path d="M8.60262 90.9806 354.235 90.9806 354.235 121.757 8.60262 121.757Z" fill="#E1D5E7" fill-rule="evenodd"/><path d="M354.235 90.9806 720.468 90.9806 720.468 121.757 354.235 121.757Z" fill="#FFFFFF" fill-rule="evenodd"/><path d="M720.468 90.9806 1271.4 90.9806 1271.4 121.757 720.468 121.757Z" fill="#FFFFFF" fill-rule="evenodd"/><path d="M8.60262 121.757 354.235 121.757 354.235 155.959 8.60262 155.959Z" fill="#E1D5E7" fill-rule="evenodd"/><path d="M354.235 121.757 720.468 121.757 720.468 155.959 354.235 155.959Z" fill="#FFFFFF" fill-rule="evenodd"/><path d="M720.468 121.757 1271.4 121.757 1271.4 155.959 720.468 155.959Z" fill="#FFFFFF" fill-rule="evenodd"/><path d="M8.60262 155.959 354.235 155.959 354.235 192.077 8.60262 192.077Z" fill="#D9D9D9" fill-rule="evenodd"/><path d="M354.235 155.959 720.468 155.959 720.468 192.077 354.235 192.077Z" fill="#FFFFFF" fill-rule="evenodd"/><path d="M720.468 155.959 1271.4 155.959 1271.4 192.077 720.468 192.077Z" fill="#FFFFFF" fill-rule="evenodd"/><path d="M8.60262 192.077 354.235 192.077 354.235 240.077 8.60262 240.077Z" fill="#CCFFCC" fill-rule="evenodd"/><path d="M354.235 192.077 720.468 192.077 720.468 240.077 354.235 240.077Z" fill="#FFFFFF" fill-rule="evenodd"/><path d="M720.468 192.077 1271.4 192.077 1271.4 240.077 720.468 240.077Z" fill="#FFFFFF" fill-rule="evenodd"/><path d="M8.60262 240.077 354.235 240.077 354.235 288.077 8.60262 288.077Z" fill="#D5E8D4" fill-rule="evenodd"/><path d="M354.235 240.077 720.468 240.077 720.468 288.077 354.235 288.077Z" fill="#FFFFFF" fill-rule="evenodd"/><path d="M720.468 240.077 1271.4 240.077 1271.4 288.077 720.468 288.077Z" fill="#FFFFFF" fill-rule="evenodd"/><path d="M8.60262 288.077 354.235 288.077 354.235 336.077 8.60262 336.077Z" fill="#60A917" fill-rule="evenodd"/><path d="M354.235 288.077 720.468 288.077 720.468 336.077 354.235 336.077Z" fill="#FFFFFF" fill-rule="evenodd"/><path d="M720.468 288.077 1271.4 288.077 1271.4 336.077 720.468 336.077Z" fill="#FFFFFF" fill-rule="evenodd"/><path d="M8.60262 336.077 354.235 336.077 354.235 368.32 8.60262 368.32Z" fill="#FFFFFF" fill-rule="evenodd"/><path d="M354.235 336.077 720.468 336.077 720.468 368.32 354.235 368.32Z" fill="#FFFFFF" fill-rule="evenodd"/><path d="M720.468 336.077 1271.4 336.077 1271.4 368.32 720.468 368.32Z" fill="#FFFFFF" fill-rule="evenodd"/><path d="M8.60262 368.32 354.235 368.32 354.235 416.32 8.60262 416.32Z" fill="#DCB9FF" fill-rule="evenodd"/><path d="M354.235 368.32 720.468 368.32 720.468 416.32 354.235 416.32Z" fill="#FFFFFF" fill-rule="evenodd"/><path d="M720.468 368.32 1271.4 368.32 1271.4 416.32 720.468 416.32Z" fill="#FFFFFF" fill-rule="evenodd"/><path d="M8.60262 416.32 354.235 416.32 354.235 476.173 8.60262 476.173Z" fill="#3737FF" fill-rule="evenodd"/><path d="M354.235 416.32 720.468 416.32 720.468 476.173 354.235 476.173Z" fill="#FFFFFF" fill-rule="evenodd"/><path d="M720.468 416.32 1271.4 416.32 1271.4 476.173 720.468 476.173Z" fill="#FFFFFF" fill-rule="evenodd"/><path d="M8.60262 476.173 354.235 476.173 354.235 506.95 8.60262 506.95Z" fill="#DAE8FC" fill-rule="evenodd"/><path d="M354.235 476.173 720.468 476.173 720.468 506.95 354.235 506.95Z" fill="#FFFFFF" fill-rule="evenodd"/><path d="M720.468 476.173 1271.4 476.173 1271.4 506.95 720.468 506.95Z" fill="#FFFFFF" fill-rule="evenodd"/><path d="M8.60262 506.95 354.235 506.95 354.235 574.15 8.60262 574.15Z" fill="#FFF2CC" fill-rule="evenodd"/><path d="M354.235 506.95 720.468 506.95 720.468 574.15 354.235 574.15Z" fill="#FFFFFF" fill-rule="evenodd"/><path d="M720.468 506.95 1271.4 506.95 1271.4 574.15 720.468 574.15Z" fill="#FFFFFF" fill-rule="evenodd"/><path d="M8.60262 574.15 354.235 574.15 354.235 622.15 8.60262 622.15Z" fill="#FFE6CC" fill-rule="evenodd"/><path d="M354.235 574.15 720.468 574.15 720.468 622.15 354.235 622.15Z" fill="#FFFFFF" fill-rule="evenodd"/><path d="M720.468 574.15 1271.4 574.15 1271.4 622.15 720.468 622.15Z" fill="#FFFFFF" fill-rule="evenodd"/><path d="M8.60262 622.15 354.235 622.15 354.235 670.15 8.60262 670.15Z" fill="#D96F3D" fill-rule="evenodd"/><path d="M354.235 622.15 720.468 622.15 720.468 670.15 354.235 670.15Z" fill="#FFFFFF" fill-rule="evenodd"/><path d="M720.468 622.15 1271.4 622.15 1271.4 670.15 720.468 670.15Z" fill="#FFFFFF" fill-rule="evenodd"/><path d="M8.60262 670.15 354.235 670.15 354.235 718.15 8.60262 718.15Z" fill="#F8CECC" fill-rule="evenodd"/><path d="M354.235 670.15 720.468 670.15 720.468 718.15 354.235 718.15Z" fill="#FFFFFF" fill-rule="evenodd"/><path d="M720.468 670.15 1271.4 670.15 1271.4 718.15 720.468 718.15Z" fill="#FFFFFF" fill-rule="evenodd"/><path d="M8.60262 55.1139 8.60262 718.816" stroke="#000000" stroke-width="1.33333" stroke-linejoin="round" stroke-miterlimit="10" fill="none" fill-rule="evenodd"/><path d="M1271.4 55.1139 1271.4 622.15" stroke="#000000" stroke-width="1.33333" stroke-linejoin="round" stroke-miterlimit="10" fill="none" fill-rule="evenodd"/><path d="M1271.4 622.15 1271.4 718.816" stroke="#000000" stroke-width="1.33333" stroke-linejoin="round" stroke-miterlimit="10" fill="none" fill-rule="evenodd"/><path d="M7.93596 55.7806 1272.06 55.7806" stroke="#000000" stroke-width="1.33333" stroke-linejoin="round" stroke-miterlimit="10" fill="none" fill-rule="evenodd"/><path d="M7.93596 718.15 1272.06 718.15" stroke="#000000" stroke-width="1.33333" stroke-linejoin="round" stroke-miterlimit="10" fill="none" fill-rule="evenodd"/><g clip-path="url(#clip1)"><text fill="#FFFFFF" font-family="Calibri,Calibri_MSFontService,sans-serif" font-weight="700" font-size="21" transform="translate(730.068 81)">Current coverage</text></g><g clip-path="url(#clip2)"><text fill="#FFFFFF" font-family="Calibri,Calibri_MSFontService,sans-serif" font-weight="700" font-size="21" transform="translate(363.835 81)">How much do we need?</text></g><g clip-path="url(#clip3)"><text fill="#FFFFFF" font-family="Calibri,Calibri_MSFontService,sans-serif" font-weight="700" font-size="21" transform="translate(18.2026 81)">Technique</text></g><text font-family="Calibri,Calibri_MSFontService,sans-serif" font-weight="400" font-size="16" transform="translate(730.068 112)">Proposed as the next PoC</text><text font-family="Calibri,Calibri_MSFontService,sans-serif" font-weight="400" font-size="16" transform="translate(363.835 112)">Depends on the Business Need</text><text font-family="Calibri,Calibri_MSFontService,sans-serif" font-weight="700" font-size="16" transform="translate(18.2026 112)">1 Build on top of the existing UI</text><text font-family="Calibri,Calibri_MSFontService,sans-serif" font-weight="400" font-size="16" transform="translate(730.068 144)">Proposed as the next PoC</text><text font-family="Calibri,Calibri_MSFontService,sans-serif" font-weight="400" font-size="16" transform="translate(363.835 144)">Likely to be a single iteration of a service</text><text font-family="Calibri,Calibri_MSFontService,sans-serif" font-weight="700" font-size="16" transform="translate(18.2026 144)">2 Use corporate authentication</text><text font-family="Calibri,Calibri_MSFontService,sans-serif" font-weight="400" font-size="16" transform="translate(730.068 179)">Proposed as the next PoC</text><text font-family="Calibri,Calibri_MSFontService,sans-serif" font-weight="400" font-size="16" transform="translate(363.835 179)">Likely to be the whole UI or not</text><text font-family="Calibri,Calibri_MSFontService,sans-serif" font-weight="700" font-size="16" transform="translate(18.2026 179)">3</text><text font-family="Calibri,Calibri_MSFontService,sans-serif" font-weight="700" font-size="16" transform="translate(30.036 179)">Transpile</text><text font-family="Calibri,Calibri_MSFontService,sans-serif" font-weight="700" font-size="16" transform="translate(93.696 179)">the</text><text font-family="Calibri,Calibri_MSFontService,sans-serif" font-weight="700" font-size="16" transform="translate(119.529 179)">Uis</text><text font-family="Calibri,Calibri_MSFontService,sans-serif" font-weight="700" font-size="16" transform="translate(144.029 179)">to latest standards</text><text font-family="Calibri,Calibri_MSFontService,sans-serif" font-weight="400" font-size="16" transform="translate(730.068 212)">An interim data extract method for Dashboards</text><text font-family="Calibri,Calibri_MSFontService,sans-serif" font-weight="400" font-size="16" transform="translate(730.068 231)">A way to generate Test Data</text><text font-family="Calibri,Calibri_MSFontService,sans-serif" font-weight="400" font-size="16" transform="translate(363.835 212)">They should only be temporary, so we keep a count</text><text font-family="Calibri,Calibri_MSFontService,sans-serif" font-weight="400" font-size="16" transform="translate(363.835 231)">of them for the backlog</text><text font-family="Calibri,Calibri_MSFontService,sans-serif" font-weight="700" font-size="16" transform="translate(18.2026 221)">4 Automate a user’s actions</text><text font-family="Calibri,Calibri_MSFontService,sans-serif" font-weight="400" font-size="16" transform="translate(730.068 260)">Core to Polaris and Email Automation.</text><text font-family="Calibri,Calibri_MSFontService,sans-serif" font-weight="400" font-size="16" transform="translate(730.068 279)">Soon to be</text><text font-family="Calibri,Calibri_MSFontService,sans-serif" font-weight="400" font-size="16" transform="translate(803.748 279)">in Production</text><path d="M730.068 274.877 804.068 274.877 804.068 275.877 730.068 275.877Z" fill-rule="evenodd"/><g clip-path="url(#clip4)"><text font-family="Calibri,Calibri_MSFontService,sans-serif" font-weight="400" font-size="16" transform="translate(363.835 260)">Maximum extent would be the full scope of CMS, but</text></g><text font-family="Calibri,Calibri_MSFontService,sans-serif" font-weight="400" font-size="16" transform="translate(363.835 279)">we might not need all of that</text><text font-family="Calibri,Calibri_MSFontService,sans-serif" font-weight="700" font-size="16" transform="translate(18.2026 260)">5 Create an API “on top” of CMS server</text><text font-family="Calibri,Calibri_MSFontService,sans-serif" font-weight="700" font-size="16" transform="translate(275.976 260)">-</text><text font-family="Calibri,Calibri_MSFontService,sans-serif" font-weight="700" font-size="16" transform="translate(280.809 260)">side</text><text font-family="Calibri,Calibri_MSFontService,sans-serif" font-weight="700" font-size="16" transform="translate(18.2026 279)">services</text><text font-family="Calibri,Calibri_MSFontService,sans-serif" font-weight="400" font-size="16" transform="translate(74.5093 279)">i.e. DDEI</text><text font-family="Calibri,Calibri_MSFontService,sans-serif" font-weight="400" font-size="16" transform="translate(730.068 308)">Polaris is building 3</text><text font-family="Calibri,Calibri_MSFontService,sans-serif" font-weight="400" font-size="16" transform="translate(858.081 308)">–</text><text font-family="Calibri,Calibri_MSFontService,sans-serif" font-weight="400" font-size="16" transform="translate(869.748 308)">a new display for case data, a search tool and a redaction</text><text font-family="Calibri,Calibri_MSFontService,sans-serif" font-weight="400" font-size="16" transform="translate(730.068 327)">process</text><text font-family="Calibri,Calibri_MSFontService,sans-serif" font-weight="400" font-size="16" transform="translate(363.835 317)">Depends on the Business Need</text><text font-family="Calibri,Calibri_MSFontService,sans-serif" font-weight="700" font-size="16" transform="translate(18.2026 317)">6 New transactional casework tools</text><text font-family="Calibri,Calibri_MSFontService,sans-serif" font-weight="400" font-size="16" transform="translate(730.068 358)">~30 applications not integrated with CMS</text><text font-family="Calibri,Calibri_MSFontService,sans-serif" font-weight="400" font-size="16" transform="translate(363.835 358)">Depends on the Business Need</text><text font-family="Calibri,Calibri_MSFontService,sans-serif" font-weight="700" font-size="16" transform="translate(18.2026 358)">7 Low Code Applications</text><text font-family="Calibri,Calibri_MSFontService,sans-serif" font-weight="400" font-size="16" transform="translate(730.068 388)">Not in any current proposal</text><text font-family="Calibri,Calibri_MSFontService,sans-serif" font-weight="400" font-size="16" transform="translate(363.835 388)">Depends on the Business Need</text><text font-family="Calibri,Calibri_MSFontService,sans-serif" font-weight="700" font-size="16" transform="translate(18.2026 398)">8 New CMS Data</text><text font-family="Calibri,Calibri_MSFontService,sans-serif" font-weight="400" font-size="16" transform="translate(730.068 442)">The approach for Future MI and Operational Dashboards. F</text><text font-family="Calibri,Calibri_MSFontService,sans-serif" font-weight="400" font-size="16" transform="translate(1112.4 442)">uture MI is going</text><text font-family="Calibri,Calibri_MSFontService,sans-serif" font-weight="400" font-size="16" transform="translate(730.068 461)">to</text><text font-family="Calibri,Calibri_MSFontService,sans-serif" font-weight="400" font-size="16" transform="translate(747.414 461)">ask for a 10 year</text><text font-family="Calibri,Calibri_MSFontService,sans-serif" font-style="italic" font-weight="700" font-size="16" transform="translate(857.721 461)">anonymised</text><text font-family="Calibri,Calibri_MSFontService,sans-serif" font-weight="400" font-size="16" transform="translate(942.134 461)">extract and then a daily</text><text font-family="Calibri,Calibri_MSFontService,sans-serif" font-weight="400" font-size="16" transform="translate(1098.11 461)">update</text><text font-family="Calibri,Calibri_MSFontService,sans-serif" font-weight="400" font-size="16" transform="translate(363.835 442)">Maximum extent would be a full copy of CMS data</text><text font-family="Calibri,Calibri_MSFontService,sans-serif" font-weight="400" font-size="16" transform="translate(363.835 461)">and files Future MI should ask for it all as a single CR.</text><text font-family="Calibri,Calibri_MSFontService,sans-serif" font-weight="700" font-size="16" transform="translate(18.2026 452)">9 Data Lake / Warehouse</text><text font-family="Calibri,Calibri_MSFontService,sans-serif" font-weight="400" font-size="16" transform="translate(730.068 497)">1 under construction</text><text font-family="Calibri,Calibri_MSFontService,sans-serif" font-weight="400" font-size="16" transform="translate(363.835 497)">Depends on the Business Need</text><text font-family="Calibri,Calibri_MSFontService,sans-serif" font-weight="700" font-size="16" transform="translate(18.2026 497)">10 Management Dashboards</text><text font-family="Calibri,Calibri_MSFontService,sans-serif" font-weight="400" font-size="16" transform="translate(730.068 536)">The Email Automation Service will go live for North and South London areas. The</text><text font-family="Calibri,Calibri_MSFontService,sans-serif" font-weight="400" font-size="16" transform="translate(730.068 555)">Files Received from Policing discovery may highlight more</text><text font-family="Calibri,Calibri_MSFontService,sans-serif" font-weight="400" font-size="16" transform="translate(363.835 527)">There is a finite number of in</text><text font-family="Calibri,Calibri_MSFontService,sans-serif" font-weight="400" font-size="16" transform="translate(551.282 527)">-</text><text font-family="Calibri,Calibri_MSFontService,sans-serif" font-weight="400" font-size="16" transform="translate(556.115 527)">bound channels and</text><text font-family="Calibri,Calibri_MSFontService,sans-serif" font-weight="400" font-size="16" transform="translate(363.835 546)">messages within them. Receipt of Police Files</text><text font-family="Calibri,Calibri_MSFontService,sans-serif" font-weight="400" font-size="16" transform="translate(363.835 565)">Discovery will prioritise</text><text font-family="Calibri,Calibri_MSFontService,sans-serif" font-weight="700" font-size="16" transform="translate(18.2026 546)">11 Intercept in</text><text font-family="Calibri,Calibri_MSFontService,sans-serif" font-weight="700" font-size="16" transform="translate(114.909 546)">-</text><text font-family="Calibri,Calibri_MSFontService,sans-serif" font-weight="700" font-size="16" transform="translate(119.743 546)">bound messages</text><text font-family="Calibri,Calibri_MSFontService,sans-serif" font-weight="400" font-size="16" transform="translate(730.068 594)">None.</text><text font-family="Calibri,Calibri_MSFontService,sans-serif" font-weight="400" font-size="16" transform="translate(730.068 613)">The Files Received from Policing discovery may highlight more</text><text font-family="Calibri,Calibri_MSFontService,sans-serif" font-weight="400" font-size="16" transform="translate(363.835 604)">As above</text><text font-family="Calibri,Calibri_MSFontService,sans-serif" font-weight="700" font-size="16" transform="translate(18.2026 604)">12 Intercept out</text><text font-family="Calibri,Calibri_MSFontService,sans-serif" font-weight="700" font-size="16" transform="translate(125.076 604)">-</text><text font-family="Calibri,Calibri_MSFontService,sans-serif" font-weight="700" font-size="16" transform="translate(129.909 604)">bound messages</text><text font-family="Calibri,Calibri_MSFontService,sans-serif" font-weight="400" font-size="16" transform="translate(730.068 642)">None. We could start by brining Low</text><text font-family="Calibri,Calibri_MSFontService,sans-serif" font-weight="400" font-size="16" transform="translate(969.168 642)">Code, Polaris and the Operational</text><g clip-path="url(#clip5)"><text font-family="Calibri,Calibri_MSFontService,sans-serif" font-weight="400" font-size="16" transform="translate(1191.04 642)">Dashboard</text></g><text font-family="Calibri,Calibri_MSFontService,sans-serif" font-weight="400" font-size="16" transform="translate(730.068 661)">together.</text><text font-family="Calibri,Calibri_MSFontService,sans-serif" font-weight="400" font-size="16" transform="translate(363.835 652)">One</text><text font-family="Calibri,Calibri_MSFontService,sans-serif" font-weight="700" font-size="16" transform="translate(18.2026 652)">13 Add to a single User Homepage</text><text font-family="Calibri,Calibri_MSFontService,sans-serif" font-weight="400" font-size="16" transform="translate(730.068 690)">CDA and CDE both failed because of technical and commercial difficulties with</text><text font-family="Calibri,Calibri_MSFontService,sans-serif" font-weight="400" font-size="16" transform="translate(730.068 709)">this approach</text><text font-family="Calibri,Calibri_MSFontService,sans-serif" font-weight="400" font-size="16" transform="translate(363.835 700)">Only required as an option if DDEI isn’t performant</text><text font-family="Calibri,Calibri_MSFontService,sans-serif" font-weight="700" font-size="16" transform="translate(18.2026 690)">Create an API “on top” of CMS database and file</text><text font-family="Calibri,Calibri_MSFontService,sans-serif" font-weight="700" font-size="16" transform="translate(18.2026 709)">store</text></g></svg>