<svg xmlns="http://www.w3.org/2000/svg" viewBox="0 0 622 787.46">
    <path d="M187,517.72Q211.36,507,235.7,496.19c12-5.31,24-10.77,36.15-15.76,3.87-1.58,5.28-3.86,5.51-7.76q1.51-26.44,3.27-52.88c1.5-23.11,3.07-46.21,4.58-69.31,1.16-17.79,2.26-35.58,3.42-53.37q2.26-34.91,4.59-69.81c1.16-18,2.25-35.92,3.42-53.87q2.26-34.67,4.6-69.31c1-15.46,2.07-30.92,2.86-46.39,0-1.1-1.79-3.2-2.91-3.32-14.39-1.57-28.82-2.85-43.23-4.22-19.88-1.89-39.76-3.83-59.64-5.7q-28.84-2.72-57.68-5.34c-5.09-.47-10.2-.9-16-1.41.66,2.87,1,5.08,1.69,7.23q48.27,162.34,96.64,324.65c1.13,3.78.32,6-2.64,8.46a153.67,153.67,0,0,1-80.64,35.56c-43.94,5.7-83.94-4.09-119.54-30.84C10,375.2,10,375.16,13.61,363Q61.25,202.58,108.9,42.13c.52-1.74,1-3.49,1.66-5.94l-44-4.27-.08-.38c5.86-.61,11.71-1.3,17.58-1.8q52.49-4.53,105-9c29.37-2.47,58.74-4.81,88.11-7.27C286.81,12.7,296.41,11,306,11c11.12,0,22.25,1.14,33.36,2,17.25,1.42,34.48,3.07,51.73,4.6q31.83,2.84,63.66,5.62Q479.4,25.42,504,27.6c16.42,1.42,32.84,2.8,49.3,4.56l-41.18,4.12c3.24,11.1,6.27,21.58,9.38,32Q566.22,218.73,611,369.08c1.22,4.09.6,6.47-2.76,9.27-26.47,22-56.83,34.06-91.15,36.37C475.27,417.54,437.8,406.29,405,380c-6.56-5.24-6.5-5.29-4.19-13.08Q448.91,204.83,497,42.7c.45-1.51.7-3.08,1.18-5.21-11.8,1.06-22.86,2-33.92,3.06q-24.11,2.27-48.21,4.61Q386.51,48,356.93,50.82c-12.1,1.15-24.19,2.38-36.3,3.28-3.39.25-4.74,1.23-4.5,4.75,1.22,17.11,2.28,34.24,3.42,51.36q1.79,26.92,3.58,53.86,2.39,35.9,4.73,71.81C329,253,330,270.13,331.15,287.25q2.34,35.91,4.72,71.81,1.65,25.19,3.25,50.37c1.37,21.45,2.61,42.91,4.25,64.33.14,1.8,2.56,4.12,4.47,5,27.94,12.53,56,24.86,84,37.24,1.32.58,2.62,1.2,5.05,2.32H187.34Zm25-143Q164.81,216,118,58.32l-1.46.1q-46.93,158-94,316.28Zm294.4-316-1.66-.07Q457.82,216.44,410.83,374.6H600.22Q553.12,216.1,506.37,58.74Z"
          fill="#fff"/>
    <g>
        <path d="M259.84,564.42c1.7-.09,3-.21,4.31-.21,22.83,0,45.67-.21,68.5.07,12.4.16,24.56,2.45,35.68,8.25,19.67,10.26,30.42,26,30.09,48.89C398,648.25,387,668.56,362.53,680c-10.07,4.72-21.4,6.91-32.31,9.64-5.06,1.26-10.49,1.07-16.2,1.57V666.84c4.76-.54,9.49-.48,13.88-1.68,23.43-6.41,36.23-32.77,27.06-55.32-5.26-12.92-16.23-17.66-28.89-18.86-8.74-.83-17.61-.16-27-.16-.16,2.53-.43,4.94-.43,7.35q0,81.78,0,163.56c0,7,0,7-7,7H259.84Z"
              fill="#fff"/>
        <path d="M229.15,580.78,215.9,602.39c-10.73-3.47-20.73-7.55-31.13-9.92-40.59-9.26-77.22,15.24-84.69,56.26-4,22-3,43.54,8,63.61,10.36,18.93,27,28.8,48,32a87.53,87.53,0,0,0,56-9.86,9,9,0,0,1,1.82-.45c3.68,7.57,7.36,15.17,11.28,23.24-9.66,6-19.63,10.76-30.65,12.85-29.66,5.62-58.54,3.51-85.23-11.55-28.35-16-47.6-39.32-53.21-72.25C44.54,619,92.11,573,140.72,565.05c28.8-4.71,56.31-.41,82.6,12.1,1.35.64,2.66,1.39,4,2.14A17.69,17.69,0,0,1,229.15,580.78Z"
              fill="#fff"/>
        <path d="M436.63,731.18c10,4.39,19.33,8.8,28.89,12.56a40.31,40.31,0,0,0,23.58,1.65c16.76-3.62,25.63-18.14,21.06-34.68-2.44-8.85-7.66-15.93-14.45-21.76-14.16-12.15-28.76-23.81-42.85-36.06-9.77-8.5-16.75-18.88-18.4-32.23-2.33-18.78,4.06-33.72,19.47-44.64s33-13.82,51.36-12.59a89.34,89.34,0,0,1,40.07,12.77c1.71,1,3.33,2.22,4.94,3.39a12.66,12.66,0,0,1,1.54,1.7c-5.22,6.78-10.36,13.46-14.64,19-9.53-3.59-18.13-7.54-27.14-10-7.45-2-15.25-.94-22.46,2.34-12.65,5.75-16.5,19.75-8,30.77,3.62,4.7,8.29,8.64,12.7,12.69,15.34,14.09,31.4,27.46,46,42.26,16.59,16.8,20,37.33,11.06,59.1-6.63,16.13-20,25.81-36.17,30.79-29.45,9.09-57.61,4.81-84.06-10.72-7.75-4.55-7.55-4.89-2.4-12.25Z"
              fill="#fff"/>
    </g>
</svg>
