<svg width="1280" height="720" xmlns="http://www.w3.org/2000/svg" xmlns:xlink="http://www.w3.org/1999/xlink" overflow="hidden"><defs><clipPath id="clip0"><rect x="0" y="0" width="1280" height="720"/></clipPath></defs><g clip-path="url(#clip0)"><rect x="0" y="0" width="1280" height="720" fill="#FFFFFF"/><rect x="0.500053" y="700.5" width="1280" height="20" stroke="#005EAA" stroke-width="2.66667" stroke-linejoin="round" stroke-miterlimit="10" fill="#005EAA"/><rect x="344" y="274" width="444" height="244" fill="#009CA6"/><text fill="#FFFFFF" font-family="Calibri,Calibri_MSFontService,sans-serif" font-weight="400" font-size="24" transform="translate(370.211 358)">Simple, intuitive tools and safe access to</text><text fill="#FFFFFF" font-family="Calibri,Calibri_MSFontService,sans-serif" font-weight="400" font-size="24" transform="translate(369.357 389)">data enables colleagues to focus on high</text><text fill="#FFFFFF" font-family="Calibri,Calibri_MSFontService,sans-serif" font-weight="400" font-size="24" transform="translate(357.237 420)">quality casework to support the delivery of</text><text fill="#FFFFFF" font-family="Calibri,Calibri_MSFontService,sans-serif" font-weight="400" font-size="24" transform="translate(534.764 451)">justice</text><path d="M213.5 360.5 213.5 123.812C213.5 97.6674 234.694 76.473 260.839 76.473L640.5 76.473 640.5 360.5Z" stroke="#FFFFFF" stroke-width="1.33333" stroke-miterlimit="8" fill="#D9D9D9" fill-rule="evenodd"/><text fill="#2F5597" font-family="Calibri,Calibri_MSFontService,sans-serif" font-weight="700" font-size="27" transform="translate(254.09 175)">Our dedication to meeting user</text><text fill="#2F5597" font-family="Calibri,Calibri_MSFontService,sans-serif" font-weight="700" font-size="27" transform="translate(267.717 204)">needs saves colleagues’ time</text><path d="M640.5 76.5001 1020.17 76.5001C1046.31 76.5001 1067.5 97.6923 1067.5 123.834L1067.5 360.5 640.5 360.5Z" stroke="#FFFFFF" stroke-width="1.33333" stroke-miterlimit="8" fill="#BDD7EE" fill-rule="evenodd"/><text fill="#2F5597" font-family="Calibri,Calibri_MSFontService,sans-serif" font-weight="700" font-size="27" transform="translate(693.493 175)">Proactive security empowers</text><text fill="#2F5597" font-family="Calibri,Calibri_MSFontService,sans-serif" font-weight="700" font-size="27" transform="translate(734.207 204)">people to work safely</text><path d="M640.5 644.5 260.834 644.5C234.692 644.5 213.5 623.308 213.5 597.166L213.5 360.5 640.5 360.5Z" stroke="#FFFFFF" stroke-width="1.33333" stroke-miterlimit="8" fill="#F8CBAD" fill-rule="evenodd"/><text fill="#2F5597" font-family="Calibri,Calibri_MSFontService,sans-serif" font-weight="700" font-size="27" transform="translate(228.69 530)">An inquisitive, inclusive team builds</text><text fill="#2F5597" font-family="Calibri,Calibri_MSFontService,sans-serif" font-weight="700" font-size="27" transform="translate(328.717 559)">digital confidence</text><path d="M1067.5 360.5 1067.5 597.188C1067.5 623.333 1046.31 644.527 1020.16 644.527L640.5 644.527 640.5 360.5Z" stroke="#FFFFFF" stroke-width="1.33333" stroke-miterlimit="8" fill="#C5E0B4" fill-rule="evenodd"/><text fill="#2F5597" font-family="Calibri,Calibri_MSFontService,sans-serif" font-weight="700" font-size="27" transform="translate(656.243 530)">Efficient processes make it easier to</text><text fill="#2F5597" font-family="Calibri,Calibri_MSFontService,sans-serif" font-weight="700" font-size="27" transform="translate(782.43 559)">deliver value</text><path d="M492.5 277.168C492.5 254.155 511.155 235.5 534.168 235.5L746.832 235.5C769.845 235.5 788.5 254.155 788.5 277.168L788.5 443.832C788.5 466.845 769.845 485.5 746.832 485.5L534.168 485.5C511.155 485.5 492.5 466.845 492.5 443.832Z" stroke="#FFFFFF" stroke-width="1.33333" stroke-miterlimit="8" fill="#002060" fill-rule="evenodd"/><text fill="#FFFFFF" font-family="Calibri,Calibri_MSFontService,sans-serif" font-weight="400" font-size="27" transform="translate(522.913 294)">Simple, intuitive tools</text><text fill="#FFFFFF" font-family="Calibri,Calibri_MSFontService,sans-serif" font-weight="400" font-size="27" transform="translate(515.607 323)">and safe access to data</text><text fill="#FFFFFF" font-family="Calibri,Calibri_MSFontService,sans-serif" font-weight="400" font-size="27" transform="translate(523.84 353)">enables colleagues to</text><text fill="#FFFFFF" font-family="Calibri,Calibri_MSFontService,sans-serif" font-weight="400" font-size="27" transform="translate(527.873 382)">focus on high quality</text><text fill="#FFFFFF" font-family="Calibri,Calibri_MSFontService,sans-serif" font-weight="400" font-size="27" transform="translate(529.387 411)">casework to support</text><text fill="#FFFFFF" font-family="Calibri,Calibri_MSFontService,sans-serif" font-weight="400" font-size="27" transform="translate(523.66 441)">the delivery of justice</text><path d="M224.084 479.25 214.14 458.401C150.168 443.473 127.571 409.926 163.668 383.471 199.766 357.017 280.889 347.672 344.861 362.6 408.833 377.527 431.43 411.074 395.332 437.529 368.688 457.055 316.051 467.939 262.291 465.038Z" stroke="#172C51" stroke-width="1.33333" stroke-miterlimit="8" fill="#0070C0" fill-rule="evenodd"/><text fill="#FFFFFF" font-family="Calibri,Calibri_MSFontService,sans-serif" font-weight="400" font-size="24" transform="translate(220.799 389)">Our cultural</text><text fill="#FFFFFF" font-family="Calibri,Calibri_MSFontService,sans-serif" font-weight="400" font-size="24" transform="translate(203.746 418)">charter fits into</text><text fill="#FFFFFF" font-family="Calibri,Calibri_MSFontService,sans-serif" font-weight="400" font-size="24" transform="translate(232.973 447)">mission 3</text></g></svg>